<svg width="96" height="289" viewBox="0 0 96 289" fill="none" xmlns="http://www.w3.org/2000/svg">
<path d="M74.42 148.272C69.6016 143.663 67.1924 136.54 67.1924 126.903C67.1924 117.057 68.1351 107.525 70.0206 98.3069C76.0959 68.768 79.1336 48.7611 79.1336 38.2863C79.1336 27.8115 77.2482 19.8507 73.4772 14.4038C69.7063 8.74741 63.3167 5.91922 54.3084 5.91922C55.1464 2.35779 57.2413 0.577074 60.5932 0.577074C71.906 0.577074 79.7621 5.50022 84.1615 15.3465C87.5135 23.5169 89.1894 33.0489 89.1894 43.9427C89.1894 54.627 88.142 68.1395 86.047 84.4802C83.952 100.821 82.9046 111.819 82.9046 117.476C82.9046 122.923 82.9046 127.008 82.9046 129.731C83.7425 139.578 87.0945 144.501 92.9604 144.501C94.6363 144.501 95.4743 145.967 95.4743 148.9C95.4743 151.624 94.6363 152.985 92.9604 152.985C84.9995 152.985 78.7146 157.699 74.1057 167.126C69.7063 176.344 66.2496 187.552 63.7357 200.75C61.4312 213.949 58.603 227.252 55.2511 240.659C52.1087 253.858 46.4523 265.066 38.2819 274.283C30.3211 283.711 19.8463 288.424 6.85756 288.424C3.92462 288.424 2.03916 287.167 1.20117 284.653L0.572686 283.082C13.3519 283.082 23.0935 279.102 29.7974 271.141C36.5012 263.39 40.7959 253.543 42.6814 241.602C44.5668 229.661 46.0333 217.51 47.0808 205.15C50.0137 174.144 59.1268 155.185 74.42 148.272Z" fill="#D9C6BA"/>
</svg>
